<svg xmlns="http://www.w3.org/2000/svg" data-name="Layer 1" viewBox="0 0 64 80" x="0px" y="0px"><title>Artboard 27</title><path d="M-120.13-492.06H-128V-494a1,1,0,0,0-1-1h-2v-1.81a1,1,0,0,0-1-1h-8a1,1,0,0,0-1,1V-495h-2a1,1,0,0,0-1,1v1.94h-7.83a1,1,0,0,0-1,1v43.87a1,1,0,0,0,1,1h31.74a1,1,0,0,0,1-1v-43.87A1,1,0,0,0-120.13-492.06ZM-139-495.81h6v.81h-6Zm-3,2.81H-130v.94H-142Zm20.91,44.81h-29.74v-41.87h29.74Zm-27-32.77h24.34a1,1,0,0,1,1,1,1,1,0,0,1-1,1h-24.34a1,1,0,0,1-1-1A1,1,0,0,1-148.17-481Zm25.34,8.22a1,1,0,0,1-1,1h-24.34a1,1,0,0,1-1-1,1,1,0,0,1,1-1h24.34A1,1,0,0,1-122.83-472.74Zm0,7.23a1,1,0,0,1-1,1h-24.34a1,1,0,0,1-1-1,1,1,0,0,1,1-1h24.34A1,1,0,0,1-122.83-465.51Zm0,7.22a1,1,0,0,1-1,1h-24.34a1,1,0,0,1-1-1,1,1,0,0,1,1-1h24.34A1,1,0,0,1-122.83-458.29Zm93.22-29.33-6.77-6.77a1,1,0,0,0-1.42,0L-74.39-457.8a1,1,0,0,0,0,1.42l6.77,6.77a1,1,0,0,0,.71.29,1,1,0,0,0,.71-.29l36.59-36.59A1,1,0,0,0-29.61-487.62Zm-4.76,3.35-1.85-1.85a1,1,0,0,0-1.41,0,1,1,0,0,0,0,1.42l1.84,1.84-2.14,2.15-1-1a1,1,0,0,0-1.41,0,1,1,0,0,0,0,1.41l1,1-2.14,2.15L-43.34-479a1,1,0,0,0-1.41,0,1,1,0,0,0,0,1.41l1.84,1.84L-45-473.59l-1-1a1,1,0,0,0-1.41,0,1,1,0,0,0,0,1.41l1,1L-48.61-470l-1.85-1.84a1,1,0,0,0-1.41,0,1,1,0,0,0,0,1.41l1.84,1.85-2.14,2.14-1-1a1,1,0,0,0-1.41,0,1,1,0,0,0,0,1.41l1,1-2.15,2.14-1.84-1.84a1,1,0,0,0-1.41,0,1,1,0,0,0,0,1.41l1.84,1.85-2.15,2.14-1-1a1,1,0,0,0-1.41,0,1,1,0,0,0,0,1.41l1,1-2.15,2.14-1.84-1.84a1,1,0,0,0-1.42,0,1,1,0,0,0,0,1.41l1.85,1.85-2.64,2.64-5.36-5.36,35.18-35.18,5.36,5.36Zm87.9-7.53-1.74-1.74c-1.82-1.82-5.21-1.42-7.54.91L14.34-462.72a1.19,1.19,0,0,0-.22.33L9.39-450.7a1,1,0,0,0,.22,1.09,1,1,0,0,0,.7.29,1,1,0,0,0,.38-.07l11.69-4.74a1,1,0,0,0,.33-.22l29.91-29.91a7,7,0,0,0,2-3.81A4.24,4.24,0,0,0,53.53-491.8Zm-7.87.59c1.53-1.53,3.69-1.94,4.72-.91l.16.16-32,32L16.47-462Zm-30.25,31,4.82,4.82-8.1,3.29ZM51.2-485.67,22-456.47l-2.07-2.07,32-32,.16.16C53.15-489.36,52.73-487.2,51.2-485.67Zm86.34-6.13-1.74-1.74c-1.83-1.82-5.21-1.42-7.54.92l-21.19,21.18h0l-8.72,8.72a1,1,0,0,0-.22.33L93.39-450.7a1,1,0,0,0,.22,1.09,1,1,0,0,0,.71.29,1,1,0,0,0,.38-.07l11.69-4.74a1,1,0,0,0,.33-.22l16.49-16.5h0l13.42-13.41C139-486.59,139.37-490,137.54-491.8Zm-15,18.83L117-478.51l2.47-2.47,5.54,5.54Zm-3.89,3.89-5.54-5.54,2.47-2.47,5.54,5.54Zm-3.89,3.89-5.54-5.54,2.47-2.47,5.54,5.54Zm-3.89,3.89-5.54-5.54,2.47-2.47,5.54,5.53ZM106-456.47,100.47-462l3.42-3.42,5.54,5.54Zm-6.59-3.77,4.82,4.82-8.11,3.29Zm27-16.62-5.54-5.54,8.81-8.81c1.53-1.53,3.68-2,4.72-.91l1.73,1.73c1,1,.62,3.19-.91,4.72Zm-264.1,77.15-8.2-8.2a1,1,0,0,0-1-.26l-11.2,3a1,1,0,0,0-.71.71l-3,11.2a1,1,0,0,0,.26,1l8.2,8.2a1,1,0,0,0,.71.3,1.09,1.09,0,0,0,.25,0l11.2-3a1,1,0,0,0,.71-.71l3-11.2A1,1,0,0,0-137.7-399.71Zm-4.52,11.09-10.09,2.7-7.38-7.38,2.7-10.09,10.09-2.7,7.38,7.38Zm-9.15.26a1,1,0,0,1,0,1.41,1,1,0,0,1-.71.29,1,1,0,0,1-.7-.29l-5.88-5.87a1,1,0,0,1,0-1.42,1,1,0,0,1,1.41,0Zm40.88-17.14-8.2-8.2a1,1,0,0,0-1-.26l-11.2,3a1,1,0,0,0-.71.71l-3,11.2a1,1,0,0,0,.26,1l8.2,8.2a1,1,0,0,0,.7.3.75.75,0,0,0,.26,0l11.2-3a1,1,0,0,0,.71-.71l3-11.2A1,1,0,0,0-110.49-405.5ZM-115-394.41l-10.09,2.7-7.38-7.38,2.7-10.09,10.09-2.7,7.38,7.38Zm-9.15.26a1,1,0,0,1,0,1.41,1,1,0,0,1-.71.29,1,1,0,0,1-.71-.29l-5.87-5.87a1,1,0,0,1,0-1.42,1,1,0,0,1,1.41,0Zm.06,8a1,1,0,0,0-1-.26l-11.2,3a1,1,0,0,0-.71.71l-3,11.2a1,1,0,0,0,.26,1l8.2,8.2a1,1,0,0,0,.7.29,1.09,1.09,0,0,0,.26,0l11.2-3a1,1,0,0,0,.71-.71l3-11.2a1,1,0,0,0-.26-1Zm3.68,19.29-10.09,2.7-7.38-7.38,2.7-10.09,10.09-2.7,7.38,7.38Zm-9.15.25a1,1,0,0,1,0,1.42,1,1,0,0,1-.71.29,1,1,0,0,1-.71-.29l-5.87-5.88a1,1,0,0,1,0-1.41,1,1,0,0,1,1.41,0Zm102.2-39h-6.74a1,1,0,0,0-1,1v1.16h-31.2a1,1,0,0,0-1,1v1.22h-5v-.39a1,1,0,0,0-1-1h-3.37a1,1,0,0,0-1,1v7.35a1,1,0,0,0,1,1h3.37a1,1,0,0,0,1-1v-.39h5v1.23a1,1,0,0,0,1,1h12.8l-11.86,20.54a1,1,0,0,0,.37,1.37,1,1,0,0,0,1.36-.37L-52-391l11.64,20.15a1,1,0,0,0,.86.5,1,1,0,0,0,.5-.13,1,1,0,0,0,.37-1.37l-11.86-20.54h15.38v1.15a1,1,0,0,0,1,1h6.74a1,1,0,0,0,1-1v-13.33A1,1,0,0,0-27.37-405.61Zm-46.89,10.34h-1.37v-5.35h1.37v5.35Zm2-1.39v-2.57h5v2.57Zm7,2.23v-7h30.2v7Zm36.94,2.15h-4.74v-11.33h4.74Zm76.24,26.52H16.13v-44.48H47.87Zm0,1.13H16.13a1.1,1.1,0,0,1-1.07-1.13v-44.48a1.11,1.11,0,0,1,1.07-1.14H47.87a1.11,1.11,0,0,1,1.07,1.14v44.48A1.1,1.1,0,0,1,47.87-364.63ZM17.2-366.89H46.8v-42.22H17.2Zm27.1-32.47H19.7V-405H44.3Zm0,1.13H19.7a1.1,1.1,0,0,1-1.07-1.13V-405a1.1,1.1,0,0,1,1.07-1.13H44.3A1.1,1.1,0,0,1,45.37-405v5.66A1.1,1.1,0,0,1,44.3-398.23Zm-23.53-2.26H43.23v-3.4H20.77ZM25.07-388H20.12v-5.24h4.95Zm0,1.13H20.12A1.1,1.1,0,0,1,19.05-388v-5.24a1.1,1.1,0,0,1,1.07-1.13h4.95a1.1,1.1,0,0,1,1.07,1.13V-388A1.1,1.1,0,0,1,25.07-386.88Zm-3.88-2.26H24v-3H21.19ZM34.47-388H29.53v-5.24h4.94Zm0,1.13H29.53A1.09,1.09,0,0,1,28.46-388v-5.24a1.1,1.1,0,0,1,1.07-1.13h4.94a1.1,1.1,0,0,1,1.07,1.13V-388A1.1,1.1,0,0,1,34.47-386.88Zm-3.87-2.26h2.8v-3H30.6ZM43.88-388h-5v-5.24h5Zm0,1.13h-5A1.1,1.1,0,0,1,37.86-388v-5.24a1.1,1.1,0,0,1,1.07-1.13h5A1.1,1.1,0,0,1,45-393.25V-388A1.1,1.1,0,0,1,43.88-386.88ZM40-389.14h2.81v-3H40Zm-14.93,9.2H20.12v-5.24h4.95Zm0,1.13H20.12a1.1,1.1,0,0,1-1.07-1.13v-5.24a1.1,1.1,0,0,1,1.07-1.13h4.95a1.1,1.1,0,0,1,1.07,1.13v5.24A1.1,1.1,0,0,1,25.07-378.81Zm-3.88-2.26H24v-3H21.19Zm13.28,1.13H29.53v-5.24h4.94Zm0,1.13H29.53a1.09,1.09,0,0,1-1.07-1.13v-5.24a1.1,1.1,0,0,1,1.07-1.13h4.94a1.1,1.1,0,0,1,1.07,1.13v5.24A1.1,1.1,0,0,1,34.47-378.81Zm-3.87-2.26h2.8v-3H30.6Zm13.28,1.13h-5v-5.24h5Zm0,1.13h-5a1.1,1.1,0,0,1-1.07-1.13v-5.24a1.1,1.1,0,0,1,1.07-1.13h5A1.1,1.1,0,0,1,45-385.18v5.24A1.1,1.1,0,0,1,43.88-378.81ZM40-381.07h2.81v-3H40Zm-14.93,9.2H20.12v-5.24h4.95Zm0,1.13H20.12a1.1,1.1,0,0,1-1.07-1.13v-5.24a1.1,1.1,0,0,1,1.07-1.13h4.95a1.1,1.1,0,0,1,1.07,1.13v5.24A1.1,1.1,0,0,1,25.07-370.74ZM21.19-373H24v-3H21.19Zm13.28,1.13H29.53v-5.24h4.94Zm0,1.13H29.53a1.09,1.09,0,0,1-1.07-1.13v-5.24a1.1,1.1,0,0,1,1.07-1.13h4.94a1.1,1.1,0,0,1,1.07,1.13v5.24A1.1,1.1,0,0,1,34.47-370.74ZM30.6-373h2.8v-3H30.6Zm13.28,1.13h-5v-5.24h5Zm0,1.13h-5a1.1,1.1,0,0,1-1.07-1.13v-5.24a1.1,1.1,0,0,1,1.07-1.13h5A1.1,1.1,0,0,1,45-377.11v5.24A1.1,1.1,0,0,1,43.88-370.74ZM40-373h2.81v-3H40ZM21.28-40h2.78v3H21.28Zm18.66,0h2.78v3H39.94Zm0-8.07h2.78v3H39.94ZM30.61-40h2.78v3H30.61Zm0-16.14h2.78v3H30.61Zm0,8.07h2.78v3H30.61ZM20.86-67.89H43.14v3.4H20.86Zm.42,11.78h2.78v3H21.28ZM47.74-75.38H16.26a1.1,1.1,0,0,0-1.06,1.14v44.48a1.09,1.09,0,0,0,1.06,1.13H47.74a1.09,1.09,0,0,0,1.06-1.13V-74.24A1.1,1.1,0,0,0,47.74-75.38ZM26.19-35.87a1.1,1.1,0,0,1-1.06,1.13H20.22a1.09,1.09,0,0,1-1.06-1.13v-5.24a1.1,1.1,0,0,1,1.06-1.13h4.91a1.1,1.1,0,0,1,1.06,1.13Zm0-8.07a1.1,1.1,0,0,1-1.06,1.13H20.22a1.09,1.09,0,0,1-1.06-1.13v-5.24a1.1,1.1,0,0,1,1.06-1.13h4.91a1.1,1.1,0,0,1,1.06,1.13Zm0-8.07a1.1,1.1,0,0,1-1.06,1.13H20.22A1.09,1.09,0,0,1,19.16-52v-5.24a1.1,1.1,0,0,1,1.06-1.13h4.91a1.1,1.1,0,0,1,1.06,1.13Zm9.33,16.14a1.1,1.1,0,0,1-1.07,1.13h-4.9a1.1,1.1,0,0,1-1.07-1.13v-5.24a1.1,1.1,0,0,1,1.07-1.13h4.9a1.1,1.1,0,0,1,1.07,1.13Zm0-8.07a1.1,1.1,0,0,1-1.07,1.13h-4.9a1.1,1.1,0,0,1-1.07-1.13v-5.24a1.1,1.1,0,0,1,1.07-1.13h4.9a1.1,1.1,0,0,1,1.07,1.13Zm0-8.07a1.1,1.1,0,0,1-1.07,1.13h-4.9A1.1,1.1,0,0,1,28.48-52v-5.24a1.1,1.1,0,0,1,1.07-1.13h4.9a1.1,1.1,0,0,1,1.07,1.13Zm9.32,16.14a1.09,1.09,0,0,1-1.06,1.13H38.87a1.1,1.1,0,0,1-1.06-1.13v-5.24a1.1,1.1,0,0,1,1.06-1.13h4.91a1.1,1.1,0,0,1,1.06,1.13Zm0-8.07a1.09,1.09,0,0,1-1.06,1.13H38.87a1.1,1.1,0,0,1-1.06-1.13v-5.24a1.1,1.1,0,0,1,1.06-1.13h4.91a1.1,1.1,0,0,1,1.06,1.13Zm0-8.07a1.09,1.09,0,0,1-1.06,1.13H38.87A1.1,1.1,0,0,1,37.81-52v-5.24a1.1,1.1,0,0,1,1.06-1.13h4.91a1.1,1.1,0,0,1,1.06,1.13Zm.42-11.35a1.09,1.09,0,0,1-1.06,1.13H19.8a1.09,1.09,0,0,1-1.06-1.13V-69a1.09,1.09,0,0,1,1.06-1.13H44.2A1.09,1.09,0,0,1,45.26-69ZM21.28-48h2.78v3H21.28Zm18.66-8.07h2.78v3H39.94Zm98.85-344.22a3.36,3.36,0,0,0-3.19-3.5h-1.46a3.37,3.37,0,0,0-3.2,3.5V-379a1,1,0,0,0,.1.42s0,0,0,0l2.92,5.85a1,1,0,0,0,.9.55,1,1,0,0,0,.89-.55l2.93-5.85v0a1,1,0,0,0,.1-.42Zm-2,0V-380h-.92v-21.77A1.46,1.46,0,0,1,136.79-400.33Zm-2.92-1.46V-380h-.93v-20.31A1.47,1.47,0,0,1,133.87-401.79Zm1,26.39L133.56-378h2.61Zm-8.91-36H94.21a1,1,0,0,0-1,1v44.75a1,1,0,0,0,1,1H126a1,1,0,0,0,1-1v-44.75A1,1,0,0,0,126-411.38Zm-1,44.75H95.21v-42.75H125ZM99.25-400.75a1,1,0,0,1,1-1h19.67a1,1,0,0,1,1,1,1,1,0,0,1-1,1H100.25A1,1,0,0,1,99.25-400.75Zm0,6.87a1,1,0,0,1,1-1h19.67a1,1,0,0,1,1,1,1,1,0,0,1-1,1H100.25A1,1,0,0,1,99.25-393.88Zm0,6.88a1,1,0,0,1,1-1h19.67a1,1,0,0,1,1,1,1,1,0,0,1-1,1H100.25A1,1,0,0,1,99.25-387Zm0,6.87a1,1,0,0,1,1-1h19.67a1,1,0,0,1,1,1,1,1,0,0,1-1,1H100.25A1,1,0,0,1,99.25-380.13Zm0,6.88a1,1,0,0,1,1-1h19.67a1,1,0,0,1,1,1,1,1,0,0,1-1,1H100.25A1,1,0,0,1,99.25-373.25Zm-210,53.71h-50.5a1,1,0,0,0-1,1v29.08a1,1,0,0,0,1,1h50.5a1,1,0,0,0,1-1v-29.08A1,1,0,0,0-110.75-319.54Zm-19,29.08h-30.52v-27.08h30.52Zm18,0h-16v-27.08h16Zm-33.24-16a4.1,4.1,0,0,0,4-4.17,4.1,4.1,0,0,0-4-4.17,4.1,4.1,0,0,0-4,4.17A4.1,4.1,0,0,0-145-306.45Zm0-6.34a2.09,2.09,0,0,1,2,2.17,2.09,2.09,0,0,1-2,2.17,2.09,2.09,0,0,1-2-2.17A2.09,2.09,0,0,1-145-312.79Zm-6,19.58H-139a1,1,0,0,0,1-1v-4.91a6.54,6.54,0,0,0-6.53-6.53h-.88a6.54,6.54,0,0,0-6.53,6.53v4.91A1,1,0,0,0-151-293.21Zm1-5.91a4.53,4.53,0,0,1,4.53-4.53h.88a4.53,4.53,0,0,1,4.53,4.53v3.91H-150Zm23.45-13.69a1,1,0,0,1,1-1H-114a1,1,0,0,1,1,1,1,1,0,0,1-1,1h-11.54A1,1,0,0,1-126.51-312.81Zm0,5.87a1,1,0,0,1,1-1H-114a1,1,0,0,1,1,1,1,1,0,0,1-1,1h-11.54A1,1,0,0,1-126.51-306.94Zm0,5.88a1,1,0,0,1,1-1H-114a1,1,0,0,1,1,1,1,1,0,0,1-1,1h-11.54A1,1,0,0,1-126.51-301.06Zm0,5.87a1,1,0,0,1,1-1H-114a1,1,0,0,1,1,1,1,1,0,0,1-1,1h-11.54A1,1,0,0,1-126.51-295.19ZM-57-328.77c-4.61,2.06-7.19,4.6-7.66,7.54-.51,3.18,1.63,5.7,2.34,6.43v32.57a3.09,3.09,0,0,0,3.09,3.08,3.08,3.08,0,0,0,3.08-3.08v-32.65c5.08-4,.65-13,.45-13.42A1,1,0,0,0-57-328.77Zm-1.15,46.54a1.08,1.08,0,0,1-1.08,1.08,1.08,1.08,0,0,1-1.09-1.08v-32.08h2.17Zm.58-34.08H-61a6,6,0,0,1-1.69-4.62c.34-2,2.26-3.94,5.6-5.59C-56.21-324.33-54.32-318.69-57.59-316.31Zm16.37-12a1,1,0,0,0-1.3-.47c-4.61,2.06-7.19,4.6-7.66,7.54-.51,3.18,1.63,5.7,2.34,6.43v32.57a3.09,3.09,0,0,0,3.09,3.08,3.08,3.08,0,0,0,3.08-3.08v-32.65C-36.59-318.92-41-327.91-41.22-328.3Zm-2.45,46.07a1.08,1.08,0,0,1-1.08,1.08,1.08,1.08,0,0,1-1.09-1.08v-32.08h2.17Zm.58-34.08h-3.43a6,6,0,0,1-1.69-4.62c.34-2,2.26-3.94,5.6-5.59C-41.71-324.33-39.82-318.69-43.09-316.31ZM52-325H12a1,1,0,0,0-1,1v40a1,1,0,0,0,1,1H52a1,1,0,0,0,1-1v-40A1,1,0,0,0,52-325Zm-1,20H33v-18H51ZM31-323v18H13v-18ZM13-303H31v18H13Zm20,18v-18H51v18ZM16-314a1,1,0,0,1,1-1h4v-4a1,1,0,0,1,1-1,1,1,0,0,1,1,1v4h4a1,1,0,0,1,1,1,1,1,0,0,1-1,1H23v4a1,1,0,0,1-1,1,1,1,0,0,1-1-1v-4H17A1,1,0,0,1,16-314Zm21.76-2.83a1,1,0,0,1,0-1.41,1,1,0,0,1,1.41,0L42-315.41l2.83-2.83a1,1,0,0,1,1.41,0,1,1,0,0,1,0,1.41L43.41-314l2.83,2.83a1,1,0,0,1,0,1.41,1,1,0,0,1-.7.3,1,1,0,0,1-.71-.3L42-312.59l-2.83,2.83a1,1,0,0,1-.71.3,1,1,0,0,1-.7-.3,1,1,0,0,1,0-1.41L40.59-314Zm-10.3,19.46-9.62,8.25a1,1,0,0,1-.65.24,1,1,0,0,1-.76-.34,1,1,0,0,1,.11-1.41l9.62-8.25a1,1,0,0,1,1.41.1A1,1,0,0,1,27.46-297.37ZM18.2-295.1a1.77,1.77,0,0,0,1.14.42,1.73,1.73,0,0,0,1.14-.42,1.56,1.56,0,0,0,.55-1.18,1.55,1.55,0,0,0-.55-1.17,1.76,1.76,0,0,0-2.28,0,1.55,1.55,0,0,0-.55,1.17,1.15,1.15,0,0,0,0,.33A1.53,1.53,0,0,0,18.2-295.1Zm1.3-.84a.22.22,0,0,1-.32,0,.38.38,0,0,1-.11-.16h0l.43-.51a.43.43,0,0,1,.15.34A.42.42,0,0,1,19.5-295.94Zm-.32-.68a.27.27,0,0,1,.16-.06.25.25,0,0,1,.16.06l-.43.51a.47.47,0,0,1,0-.17A.47.47,0,0,1,19.18-296.62Zm4.34,3.72a1.56,1.56,0,0,0-.55,1.18,1.55,1.55,0,0,0,.55,1.17,1.73,1.73,0,0,0,1.14.42,1.77,1.77,0,0,0,1.14-.42,1.55,1.55,0,0,0,.55-1.17,1.56,1.56,0,0,0-.55-1.18A1.76,1.76,0,0,0,23.52-292.9Zm1.3,1.52a.22.22,0,0,1-.32,0,.43.43,0,0,1-.15-.34.42.42,0,0,1,.15-.34.21.21,0,0,1,.16-.07.23.23,0,0,1,.16.07.45.45,0,0,1,.15.34A.47.47,0,0,1,24.82-291.38ZM48.94-294a1,1,0,0,1-1,1H36.06a1,1,0,0,1-1-1,1,1,0,0,1,1-1H47.94A1,1,0,0,1,48.94-294Zm82.67-33.51a1,1,0,0,0-.85-.48H101.24a1,1,0,0,0-.85.48,1,1,0,0,0,0,1l14.23,28.59A9,9,0,0,0,107-289a9,9,0,0,0,9,9,9,9,0,0,0,9-9,9,9,0,0,0-7.61-8.91l14.23-28.59A1,1,0,0,0,131.61-327.51ZM123-289a7,7,0,0,1-7,7,7,7,0,0,1-7-7,7,7,0,0,1,7-7A7,7,0,0,1,123-289Zm-7-10.54L102.86-326h26.28Zm-1,5.86-.86,2.65h-2.78a1,1,0,0,0-1,.69,1,1,0,0,0,.36,1.12l2.25,1.63-.86,2.64a1,1,0,0,0,.37,1.12,1,1,0,0,0,1.17,0L116-285.5l2.25,1.63a1,1,0,0,0,.59.19,1,1,0,0,0,.58-.19,1,1,0,0,0,.37-1.12l-.86-2.64,2.25-1.63a1,1,0,0,0,.36-1.12,1,1,0,0,0-1-.69h-2.78l-.86-2.65a1,1,0,0,0-1-.69A1,1,0,0,0,115.05-293.72Zm2,4.65h.43l-.34.25a1,1,0,0,0-.37,1.12l.13.4-.34-.25a1,1,0,0,0-.59-.19,1,1,0,0,0-.59.19l-.34.25.13-.4a1,1,0,0,0-.37-1.12l-.34-.25h.43a1,1,0,0,0,1-.69l.13-.41.13.41A1,1,0,0,0,117.08-289.07Zm-234.94,50.93a12.84,12.84,0,0,0-18.14,0,12.81,12.81,0,0,0-2.34,14.91L-153.59-208l-.12-.12a1.91,1.91,0,0,0-2.69,0l-.93.94a1.89,1.89,0,0,0,0,2.69l5.8,5.8a1.87,1.87,0,0,0,1.35.56,1.85,1.85,0,0,0,1.34-.56l.94-.93a1.91,1.91,0,0,0,0-2.69l-.12-.12,15.24-15.24a12.76,12.76,0,0,0,5.84,1.41,12.81,12.81,0,0,0,9.08-3.76A12.84,12.84,0,0,0-117.86-238.14Zm-32.32,38-5.67-5.67.8-.8.76.76,4.15,4.15.76.76Zm.75-3.68-2.74-2.74,14.9-14.9c.05.05.09.11.14.17l.17.21a12.27,12.27,0,0,0,1,1.09,11,11,0,0,0,1.09,1,1.84,1.84,0,0,0,.22.17l.16.14Zm30.15-17.58a10.82,10.82,0,0,1-13.17,1.66,11.37,11.37,0,0,1-2.14-1.66,11.12,11.12,0,0,1-1.66-2.15,10.81,10.81,0,0,1,1.66-13.16,10.79,10.79,0,0,1,7.67-3.17,10.78,10.78,0,0,1,7.65,3.16A10.84,10.84,0,0,1-119.28-221.41Zm-1-14.28a9.37,9.37,0,0,0-13.24,0,9.37,9.37,0,0,0,0,13.24,9.3,9.3,0,0,0,6.62,2.74c.3,0,.6,0,.9,0a9.31,9.31,0,0,0,5.72-2.7A9.37,9.37,0,0,0-120.31-235.69Zm-1.42,11.83a7.37,7.37,0,0,1-10.41,0,7.37,7.37,0,0,1,0-10.41,7.42,7.42,0,0,1,1.16-.95,7.4,7.4,0,0,1,8.1,0,7.34,7.34,0,0,1,1.15.95A7.37,7.37,0,0,1-121.73-223.86Zm91.55,13h-2.37v-23.3a1,1,0,0,0-1-1h-36.9a1,1,0,0,0-1,1v23.3h-2.37a2.07,2.07,0,0,0-2.06,2.07v1.9a2.07,2.07,0,0,0,2.06,2.07h43.64a2.07,2.07,0,0,0,2.06-2.07v-1.9A2.07,2.07,0,0,0-30.18-210.87Zm-4.37-22.3v19h-34.9v-19Zm-34.9,21h34.9v1.28h-34.9Zm39.33,5.25a.07.07,0,0,1-.06.07l-43.7-.07.06-2,43.7.07Zm88.45-36.36H5.67a1,1,0,0,0-1,1v3.83a1,1,0,0,0,1,1H7.61v22.13a1,1,0,0,0,1,1H30l-11.62,16a1,1,0,0,0,.22,1.4,1,1,0,0,0,1.4-.22L32-213.6l12,16.45a1,1,0,0,0,.81.41,1,1,0,0,0,.59-.19,1,1,0,0,0,.22-1.4L34-214.3H55.39a1,1,0,0,0,1-1v-22.13h1.94a1,1,0,0,0,1-1v-3.83A1,1,0,0,0,58.33-243.26Zm-3.94,27H9.61v-21.13H54.39Zm2.94-23.13H6.67v-1.83H57.33Zm-42,10.57a1,1,0,0,1,1-1c2.05,0,3.09,1.32,3.92,2.38s1.31,1.62,2.34,1.62,1.54-.59,2.34-1.62,1.87-2.38,3.92-2.38,3.09,1.32,3.92,2.38,1.32,1.62,2.34,1.62,1.54-.59,2.35-1.62,1.87-2.38,3.92-2.38,3.09,1.32,3.92,2.38,1.32,1.62,2.35,1.62a1,1,0,0,1,1,1,1,1,0,0,1-1,1c-2,0-3.09-1.32-3.92-2.38s-1.32-1.62-2.35-1.62-1.54.58-2.35,1.62-1.86,2.38-3.92,2.38-3.08-1.32-3.91-2.38-1.32-1.62-2.35-1.62-1.53.58-2.34,1.61-1.87,2.39-3.92,2.39-3.09-1.32-3.92-2.39-1.31-1.61-2.34-1.61A1,1,0,0,1,15.34-228.86Zm122,4.11-16.56-16.56a1,1,0,0,0-1.41,0l-3,3a1,1,0,0,0,0,1.42l2.23,2.22-12.74,12.74-1.2-1.2a1,1,0,0,0-1.42,0l-2.64,2.65a1,1,0,0,0,0,1.41l4.83,4.83L96.19-205a1,1,0,0,0-.24.41l-1.55,4.89a1,1,0,0,0,.24,1,1,1,0,0,0,.72.3.9.9,0,0,0,.28,0l5-1.45a1,1,0,0,0,.43-.25l9.24-9.24,4.83,4.82a1,1,0,0,0,.71.3,1,1,0,0,0,.7-.3l2.65-2.64a1,1,0,0,0,0-1.42l-1.2-1.2,12.74-12.74,2.22,2.23a1.05,1.05,0,0,0,.71.29,1,1,0,0,0,.71-.29l3-3A1,1,0,0,0,137.35-224.75Zm-37.53,23-2.95.86.91-2.88,9.07-9.07,2,2Zm16-4.94L111-211.51h0L107.56-215l-4.83-4.83L104-221l1.2,1.2,10.7,10.7,1.2,1.2Zm.74-4.55-9.29-9.28L120-233.27l9.29,9.29Zm17.08-11.22-2.22-2.23-10.7-10.7-2.22-2.22,1.57-1.58L135.23-224Zm-253.78,66.4H-128V-158a1,1,0,0,0-1-1h-2v-1.81a1,1,0,0,0-1-1h-8a1,1,0,0,0-1,1V-159h-2a1,1,0,0,0-1,1v1.94h-7.83a1,1,0,0,0-1,1v43.87a1,1,0,0,0,1,1h31.74a1,1,0,0,0,1-1v-43.87A1,1,0,0,0-120.13-156.06Zm-3.7,34.77h-24.34a1,1,0,0,1-1-1,1,1,0,0,1,1-1h24.34a1,1,0,0,1,1,1A1,1,0,0,1-123.83-121.29Zm0-7.22h-24.34a1,1,0,0,1-1-1,1,1,0,0,1,1-1h24.34a1,1,0,0,1,1,1A1,1,0,0,1-123.83-128.51Zm0-7.23h-24.34a1,1,0,0,1-1-1,1,1,0,0,1,1-1h24.34a1,1,0,0,1,1,1A1,1,0,0,1-123.83-135.74Zm0-7.22h-24.34a1,1,0,0,1-1-1,1,1,0,0,1,1-1h24.34a1,1,0,0,1,1,1A1,1,0,0,1-123.83-143Zm87.45-15.43,6.77,6.77a1,1,0,0,1,0,1.42l-2.81,2.81s0-.05,0-.07l-2.65-2.64a1,1,0,0,0-1.47,0,1,1,0,0,0,0,1.46l2.65,2.65.06,0-2.24,2.25,0-.07-1.76-1.76a1,1,0,0,0-1.46,0,1,1,0,0,0,0,1.46l1.76,1.77.06,0L-39.8-140l-.05-.07-2.64-2.64a1,1,0,0,0-1.47,0,1,1,0,0,0,0,1.46l2.65,2.65.06,0-2.24,2.25s0-.05,0-.06l-1.76-1.77a1.05,1.05,0,0,0-1.47,0,1.05,1.05,0,0,0,0,1.47l1.77,1.76.06,0-2.24,2.25s0-.05,0-.06l-2.64-2.65a1,1,0,0,0-1.47,0,1,1,0,0,0,0,1.47l2.65,2.64.06,0-2.25,2.25,0-.06-1.76-1.77a1.05,1.05,0,0,0-1.47,0,1.05,1.05,0,0,0,0,1.47l1.76,1.76.07.05-2.25,2.24a.21.21,0,0,0,0-.06L-57.26-128a1,1,0,0,0-1.46,0,1,1,0,0,0,0,1.47l2.64,2.64.07,0-2.25,2.24s0,0,0-.06l-1.77-1.76a1,1,0,0,0-1.46,0,1,1,0,0,0,0,1.46l1.76,1.76.07,0-2.25,2.24s0,0,0-.06l-2.65-2.65a1,1,0,0,0-1.46,0,1,1,0,0,0,0,1.47l2.64,2.65.07,0-2.81,2.81a1,1,0,0,1-.71.29,1,1,0,0,1-.71-.29l-6.77-6.77a1,1,0,0,1,0-1.42l36.59-36.59A1,1,0,0,1-36.38-158.39Zm89,10.13-29.9,29.91a1.19,1.19,0,0,1-.33.22L10.7-113.39a1,1,0,0,1-.38.07,1,1,0,0,1-.71-.29,1,1,0,0,1-.22-1.09l4.74-11.69a1.19,1.19,0,0,1,.22-.33l29.91-29.9c2.33-2.34,5.71-2.74,7.54-.92l.13.14L17.84-123.31a1,1,0,0,0,0,1.47,1,1,0,0,0,.73.31,1.05,1.05,0,0,0,.74-.31L53.4-155.93l.14.13C55.37-154,55-150.59,52.62-148.26Zm65.74,18a1.77,1.77,0,0,0,.17.12l-2.93,2.93a1,1,0,0,0-.12-.17l-8.08-8.08a1,1,0,0,0-.17-.12l2.93-2.93a1.77,1.77,0,0,0,.12.17Zm4.52-4.52a1.77,1.77,0,0,0,.17.12l-2.93,2.93a1,1,0,0,0-.12-.17L111.92-140a1,1,0,0,0-.17-.12l2.93-2.93a1,1,0,0,0,.12.17Zm4.52-4.52a1,1,0,0,0,.17.12l-2.93,2.93a1,1,0,0,0-.12-.17l-8.08-8.08a1,1,0,0,0-.17-.12l2.93-2.93a1,1,0,0,0,.12.17Zm-13.56,13.56a.82.82,0,0,0,.17.11l-2.93,2.94a1,1,0,0,0-.12-.17L102.88-131a1,1,0,0,0-.17-.12l2.93-2.93a1,1,0,0,0,.12.17Zm-4.52,4.52a1.77,1.77,0,0,0,.17.12l-2.77,2.77a1.19,1.19,0,0,1-.33.22L94.7-113.39a1,1,0,0,1-.38.07,1,1,0,0,1-.71-.29,1,1,0,0,1-.22-1.09l4.74-11.69a1.19,1.19,0,0,1,.22-.33l2.78-2.77a.82.82,0,0,0,.11.17Zm27.31-27-7.47,7.47A1,1,0,0,0,129-141L121-149a1,1,0,0,0-.17-.12l7.47-7.46c2.33-2.34,5.71-2.75,7.54-.92l1.74,1.74C139.37-154,139-150.59,136.63-148.26ZM-137.7-63.71l-8.2-8.2a1,1,0,0,0-1-.26l-11.2,3a1,1,0,0,0-.71.71l-3,11.2a1,1,0,0,0,.26,1l8.2,8.19a1,1,0,0,0,.71.3.73.73,0,0,0,.25,0l11.2-3a1,1,0,0,0,.71-.71l3-11.2A1,1,0,0,0-137.7-63.71Zm-13.67,12.76a1,1,0,0,1-.71.29,1,1,0,0,1-.7-.29l-5.88-5.87a1,1,0,0,1,0-1.42,1,1,0,0,1,1.41,0l5.88,5.88A1,1,0,0,1-151.37-50.95Zm40.88-18.55-8.2-8.2a1,1,0,0,0-1-.26l-11.2,3a1,1,0,0,0-.71.71l-3,11.2a1,1,0,0,0,.26,1l8.2,8.19a1,1,0,0,0,.7.3.75.75,0,0,0,.26,0l11.2-3a1,1,0,0,0,.71-.7l3-11.21A1,1,0,0,0-110.49-69.5Zm-13.67,12.76a1,1,0,0,1-.71.29,1,1,0,0,1-.71-.29l-5.87-5.87a1,1,0,0,1,0-1.42A1,1,0,0,1-130-64l5.88,5.88A1,1,0,0,1-124.16-56.74Zm.06,6.63a1,1,0,0,0-1-.26l-11.2,3a1,1,0,0,0-.71.71l-3,11.2a1,1,0,0,0,.26,1l8.2,8.2a1,1,0,0,0,.7.29,1.09,1.09,0,0,0,.26,0l11.2-3a1,1,0,0,0,.71-.71l3-11.2a1,1,0,0,0-.26-1Zm-5.47,21a1,1,0,0,1-.71.29,1,1,0,0,1-.71-.29L-136.86-35a1,1,0,0,1,0-1.41,1,1,0,0,1,1.41,0l5.88,5.88A1,1,0,0,1-129.57-29.15ZM138.79-64.33V-43a1,1,0,0,1-.1.42v0l-2.93,5.85a1,1,0,0,1-.89.55,1,1,0,0,1-.9-.55l-2.92-5.85s0,0,0,0a1,1,0,0,1-.1-.42V-64.33a3.37,3.37,0,0,1,3.2-3.5h1.46A3.36,3.36,0,0,1,138.79-64.33ZM126-75.38H94.21a1,1,0,0,0-1,1v44.75a1,1,0,0,0,1,1H126a1,1,0,0,0,1-1V-74.38A1,1,0,0,0,126-75.38Zm-6,39.13H100.25a1,1,0,0,1-1-1,1,1,0,0,1,1-1h19.67a1,1,0,0,1,1,1A1,1,0,0,1,119.92-36.25Zm0-6.88H100.25a1,1,0,0,1-1-1,1,1,0,0,1,1-1h19.67a1,1,0,0,1,1,1A1,1,0,0,1,119.92-43.13Zm0-6.87H100.25a1,1,0,0,1-1-1,1,1,0,0,1,1-1h19.67a1,1,0,0,1,1,1A1,1,0,0,1,119.92-50Zm0-6.88H100.25a1,1,0,0,1-1-1,1,1,0,0,1,1-1h19.67a1,1,0,0,1,1,1A1,1,0,0,1,119.92-56.88Zm0-6.87H100.25a1,1,0,0,1-1-1,1,1,0,0,1,1-1h19.67a1,1,0,0,1,1,1A1,1,0,0,1,119.92-63.75ZM-129.73,16.46h-31.52a1,1,0,0,0-1,1V46.54a1,1,0,0,0,1,1h31.52ZM-145,21.21a4.1,4.1,0,0,1,4,4.17,4.1,4.1,0,0,1-4,4.17,4.1,4.1,0,0,1-4-4.17A4.1,4.1,0,0,1-145,21.21Zm6,21.58H-151a1,1,0,0,1-1-1V36.88a6.54,6.54,0,0,1,6.53-6.53h.88A6.54,6.54,0,0,1-138,36.88v4.91A1,1,0,0,1-139,42.79Zm-8-17.41a2.09,2.09,0,0,1,2-2.17,2.09,2.09,0,0,1,2,2.17,2.09,2.09,0,0,1-2,2.17A2.09,2.09,0,0,1-147,25.38Zm7,11.5v3.91H-150V36.88a4.53,4.53,0,0,1,4.53-4.53h.88A4.53,4.53,0,0,1-140,36.88Zm29.27-20.42h-17V47.54h17a1,1,0,0,0,1-1V17.46A1,1,0,0,0-110.75,16.46ZM-114,41.81h-11.54a1,1,0,0,1-1-1,1,1,0,0,1,1-1H-114a1,1,0,0,1,1,1A1,1,0,0,1-114,41.81Zm0-5.87h-11.54a1,1,0,0,1-1-1,1,1,0,0,1,1-1H-114a1,1,0,0,1,1,1A1,1,0,0,1-114,35.94Zm0-5.88h-11.54a1,1,0,0,1-1-1,1,1,0,0,1,1-1H-114a1,1,0,0,1,1,1A1,1,0,0,1-114,30.06Zm0-5.87h-11.54a1,1,0,0,1-1-1,1,1,0,0,1,1-1H-114a1,1,0,0,1,1,1A1,1,0,0,1-114,24.19ZM24.82,43.94a.45.45,0,0,1,.15.34.47.47,0,0,1-.15.34.22.22,0,0,1-.32,0,.43.43,0,0,1-.15-.34.42.42,0,0,1,.15-.34.21.21,0,0,1,.16-.07A.23.23,0,0,1,24.82,43.94ZM11.1,31H31V11.1a.44.44,0,0,1,0-.1H12a1,1,0,0,0-1,1V31ZM17,21h4V17a1,1,0,0,1,2,0v4h4a1,1,0,0,1,0,2H23v4a1,1,0,0,1-2,0V23H17a1,1,0,0,1,0-2Zm2.07,18.89.44-.51a.46.46,0,0,1,.14.34.42.42,0,0,1-.15.34.22.22,0,0,1-.32,0,.38.38,0,0,1-.11-.16ZM33,11.1V31H52.9l.1,0V12a1,1,0,0,0-1-1H33A.44.44,0,0,1,33,11.1Zm4.72,8.07a1,1,0,0,1,1.41-1.41L42,20.59l2.83-2.83a1,1,0,0,1,1.41,1.41L43.41,22l2.83,2.83a1,1,0,0,1,0,1.41,1,1,0,0,1-1.41,0L42,23.41l-2.83,2.83a1,1,0,0,1-1.41,0,1,1,0,0,1,0-1.41L40.59,22ZM52.9,33H33V52.9a.44.44,0,0,1,0,.1H52a1,1,0,0,0,1-1V33Zm-5,10H36.06a1,1,0,0,1,0-2H47.94a1,1,0,0,1,0,2ZM19.07,39.89a.43.43,0,0,1,.11-.51.27.27,0,0,1,.16-.06.25.25,0,0,1,.16.06ZM31,52.9V33H11.1L11,33V52a1,1,0,0,0,1,1H31A.44.44,0,0,1,31,52.9ZM18.2,38.54a1.78,1.78,0,0,1,2.28,0A1.57,1.57,0,0,1,21,39.72a1.56,1.56,0,0,1-.55,1.18,1.73,1.73,0,0,1-1.14.42,1.77,1.77,0,0,1-1.14-.42h0a1.57,1.57,0,0,1-.51-.85,1.19,1.19,0,0,1,0-.33A1.57,1.57,0,0,1,18.2,38.54Zm7.6,6.91a1.77,1.77,0,0,1-1.14.42,1.73,1.73,0,0,1-1.14-.42,1.53,1.53,0,0,1,0-2.35,1.76,1.76,0,0,1,2.28,0,1.53,1.53,0,0,1,0,2.35Zm1.66-6.82-9.62,8.25a1,1,0,0,1-.65.25,1,1,0,0,1-.65-1.76l9.62-8.25a1,1,0,1,1,1.3,1.51ZM131.61,8.49a1,1,0,0,0-.85-.48H101.24a1,1,0,0,0-.85.48,1,1,0,0,0,0,1l14.23,28.59a9,9,0,1,0,2.84,0L131.65,9.46A1,1,0,0,0,131.61,8.49Zm-11,36.44a1,1,0,0,1,.59,1.8l-2.25,1.64.86,2.64a1,1,0,0,1-.37,1.12,1,1,0,0,1-1.17,0L116,50.5l-2.25,1.63A1,1,0,0,1,112.21,51l.86-2.64-2.25-1.64a1,1,0,0,1,.59-1.8h2.78l.86-2.65a1,1,0,0,1,1.9,0l.86,2.65ZM116,36.42,102.86,10h26.28Zm1.08,10.51h.43l-.34.25a1,1,0,0,0-.37,1.11l.13.41-.34-.25a1,1,0,0,0-1.18,0l-.34.25.13-.41a1,1,0,0,0-.37-1.11l-.34-.25h.43a1,1,0,0,0,1-.7l.13-.4.13.4A1,1,0,0,0,117.08,46.93Zm-231.19,60a12.72,12.72,0,0,1-3.76,9.07,12.79,12.79,0,0,1-9.07,3.76,12.65,12.65,0,0,1-5.84-1.42L-148,133.59l.12.12a1.87,1.87,0,0,1,.55,1.34,1.89,1.89,0,0,1-.55,1.35l-.94.93a1.9,1.9,0,0,1-1.35.56,1.89,1.89,0,0,1-1.34-.56l-5.81-5.8a1.92,1.92,0,0,1,0-2.7l.94-.93a2,2,0,0,1,2.69,0l.12.12,15.24-15.25A12.8,12.8,0,0,1-136,97.86a12.84,12.84,0,0,1,18.14,0A12.7,12.7,0,0,1-114.11,106.93Zm83.93,18.2h-2.37v-23.3a1,1,0,0,0-1-1h-36.9a1,1,0,0,0-1,1v23.3h-2.37a2.07,2.07,0,0,0-2.06,2.07v1.9a2.07,2.07,0,0,0,2.06,2.07h43.64a2.07,2.07,0,0,0,2.06-2.07v-1.9A2.07,2.07,0,0,0-30.18,125.13Zm-4.37-22.3v19h-34.9v-19Zm-34.9,21h34.9v1.28h-34.9ZM58.33,92.74H5.67a1,1,0,0,0-1,1v3.83a1,1,0,0,0,1,1H7.61V120.7a1,1,0,0,0,1,1H30l-11.62,16a1,1,0,0,0,.22,1.4,1,1,0,0,0,1.4-.22L32,122.4l12,16.45a1,1,0,0,0,.81.41,1,1,0,0,0,.81-1.59L34,121.7H55.39a1,1,0,0,0,1-1V98.57h1.94a1,1,0,0,0,1-1V93.74A1,1,0,0,0,58.33,92.74Zm-10.67,19.4c-2,0-3.09-1.32-3.92-2.38s-1.32-1.62-2.35-1.62-1.54.58-2.35,1.62-1.86,2.38-3.92,2.38-3.08-1.32-3.91-2.38-1.32-1.62-2.35-1.62-1.53.58-2.34,1.62-1.87,2.38-3.92,2.38-3.09-1.32-3.92-2.38-1.31-1.62-2.34-1.62a1,1,0,0,1,0-2c2.05,0,3.09,1.32,3.92,2.38s1.31,1.62,2.34,1.62,1.54-.58,2.34-1.62,1.87-2.38,3.92-2.38,3.09,1.32,3.92,2.38,1.32,1.62,2.34,1.62,1.54-.58,2.35-1.62,1.87-2.38,3.92-2.38,3.09,1.32,3.92,2.38,1.32,1.62,2.35,1.62a1,1,0,1,1,0,2Zm89.69.53-3,3a1,1,0,0,1-.71.29,1,1,0,0,1-.71-.29l-2.22-2.23L118,126.17l1.2,1.2a1,1,0,0,1,0,1.42l-2.65,2.64a1,1,0,0,1-.7.3,1,1,0,0,1-.71-.3l-4.83-4.82-9.24,9.24a1,1,0,0,1-.43.25l-5,1.45a.9.9,0,0,1-.28,0,1,1,0,0,1-1-1.3L96,131.4a1,1,0,0,1,.24-.41l9.25-9.24-4.83-4.83a1,1,0,0,1,0-1.41l2.64-2.65a1,1,0,0,1,1.42,0l1.2,1.2,12.74-12.74-2.23-2.22a1,1,0,0,1,0-1.42l3-3a1,1,0,0,1,1.41,0l16.56,16.56A1,1,0,0,1,137.35,112.67ZM-72.26-65.23h3.7v6.57h-3.7v.39a1,1,0,0,1-1,1h-3.37a1,1,0,0,1-1-1v-7.35a1,1,0,0,1,1-1h3.37a1,1,0,0,1,1,1Zm45.89-3.38v13.33a1,1,0,0,1-1,1h-6.74a1,1,0,0,1-1-1V-68.61a1,1,0,0,1,1-1h6.74A1,1,0,0,1-26.37-68.61Zm-39.94,1.16h30v11H-50.49l11.86,20.54A1,1,0,0,1-39-34.52a1,1,0,0,1-.5.13,1,1,0,0,1-.86-.5L-52-55-63.64-34.89a1,1,0,0,1-1.36.37,1,1,0,0,1-.37-1.37l11.86-20.54h-12.8a1,1,0,0,1-1-1v-9A1,1,0,0,1-66.31-67.45Zm10.15,88.67V53.77a3.08,3.08,0,0,1-3.08,3.08,3.09,3.09,0,0,1-3.09-3.08V21.22Zm.45-.53h-7.08a7.64,7.64,0,0,1-1.88-5.92c.47-2.94,3.05-5.48,7.66-7.54a1,1,0,0,1,1.3.47C-55.52,8.08-51.4,16.48-55.71,20.69Zm14.05.53V53.77a3.08,3.08,0,0,1-3.08,3.08,3.09,3.09,0,0,1-3.09-3.08V21.22Zm.45-.53h-7.08a7.64,7.64,0,0,1-1.88-5.92c.47-2.94,3.05-5.48,7.66-7.54a1,1,0,0,1,1.3.47C-41,8.08-36.9,16.48-41.21,20.69Z"/></svg>