<svg xmlns="http://www.w3.org/2000/svg" xmlns:xlink="http://www.w3.org/1999/xlink" version="1.1" x="0px" y="0px" viewBox="0 0 24 30" enable-background="new 0 0 24 24" xml:space="preserve"><g><circle cx="13" cy="9" r="3"/><path d="M16,13h-6c-1.104,0-2,0.896-2,2v3h10v-3C18,13.896,17.104,13,16,13z"/><path d="M19,0H5C3.346,0,2,1.346,2,3v18c0,1.654,1.346,3,3,3h14c1.654,0,3-1.346,3-3V3C22,1.346,20.654,0,19,0z M20,21   c0,0.552-0.448,1-1,1H5c-0.551,0-1-0.448-1-1v-2.5h1v1C5,19.776,5.224,20,5.5,20S6,19.776,6,19.5v-3C6,16.224,5.776,16,5.5,16   S5,16.224,5,16.5v1H4v-5h1v1C5,13.776,5.224,14,5.5,14S6,13.776,6,13.5v-3C6,10.224,5.776,10,5.5,10S5,10.224,5,10.5v1H4v-5h1v1   C5,7.776,5.224,8,5.5,8S6,7.776,6,7.5v-3C6,4.224,5.776,4,5.5,4S5,4.224,5,4.5v1H4V3c0-0.551,0.449-1,1-1h14c0.552,0,1,0.449,1,1   V21z"/></g></svg>