<svg xmlns="http://www.w3.org/2000/svg" data-name="Layer 1" viewBox="0 0 512 640" x="0px" y="0px"><title>Space Tool</title><rect x="352.988" y="391.661" width="38.13" height="98.008" transform="translate(-185.772 587.091) rotate(-64.534)"/><path d="M469.647,165.046a19.622,19.622,0,0,0-12.209,19.193q0,.078.006.156l1.377,56.388a39.905,39.905,0,0,1,7.921,2.793,6,6,0,0,1,2.837,8l-32.312,67.845a6,6,0,1,1-10.834-5.16l29.454-61.843a28.034,28.034,0,0,0-31.61,15.229L404.62,308.918a60.693,60.693,0,0,1-16.733,21.133l-4.084,3.275a69.775,69.775,0,0,0-25.224,66.513l59.093,28.144-.6-8.072a34.62,34.62,0,0,1,7.872-24.745l51.3-62.082a71.977,71.977,0,0,0,13.342-42.265Z"/><rect x="90.943" y="421.6" width="98.008" height="38.13" transform="translate(-175.873 102.983) rotate(-25.465)"/><path d="M94.932,419.91l-.6,8.073,59.093-28.144A69.777,69.777,0,0,0,128.2,333.326l-4.086-3.276a60.689,60.689,0,0,1-16.732-21.132L87.723,267.644a28.043,28.043,0,0,0-31.61-15.23l29.454,61.844a6,6,0,0,1-10.834,5.16L42.421,251.573a6,6,0,0,1,2.837-8,39.969,39.969,0,0,1,7.921-2.793L54.556,184.4q0-.078.006-.156a19.622,19.622,0,0,0-12.209-19.193L22.416,290.819a71.977,71.977,0,0,0,13.342,42.265l51.3,62.081A34.623,34.623,0,0,1,94.932,419.91Z"/><polygon points="242.872 292 269.128 292 268.821 195 243.179 195 242.872 292"/><polygon points="256 132.215 219.998 183 292.002 183 256 132.215"/><path d="M226.365,332.205a42.211,42.211,0,0,0,59.27-.052A42.512,42.512,0,0,0,297.864,304H214.136A42.638,42.638,0,0,0,226.365,332.205Z"/><polygon points="231.179 195 214.375 195 214.133 292 230.872 292 231.179 195"/><polygon points="280.821 195 281.128 292 297.867 292 297.625 195 280.821 195"/><path d="M256,69.359a6,6,0,0,0,6-6V25.054a6,6,0,1,0-12,0V63.359A6,6,0,0,0,256,69.359Z"/><path d="M107.063,174h39.866a6,6,0,0,0,0-12H107.063a6,6,0,1,0,0,12Z"/><path d="M359.071,168a6,6,0,0,0,6,6h39.866a6,6,0,0,0,0-12H365.071A6,6,0,0,0,359.071,168Z"/><path d="M175.007,98.352a6,6,0,0,0,8.265-8.7L154.889,62.686a6,6,0,1,0-8.266,8.7Z"/><path d="M332.861,100a5.978,5.978,0,0,0,4.132-1.65l28.383-26.966a6,6,0,1,0-8.266-8.7L328.728,89.652A6,6,0,0,0,332.861,100Z"/></svg>